<svg width="36" height="36" viewBox="0 0 36 36" fill="none" xmlns="http://www.w3.org/2000/svg">
<rect x="-0.00012207" width="36" height="36" rx="8" fill="#F2F1FA"/>
<path d="M8.99988 11.4198C8.99988 10.8426 9.20259 10.3664 9.60799 9.99124C10.0134 9.61605 10.5404 9.42847 11.1891 9.42847C11.8261 9.42847 12.3416 9.61316 12.7354 9.98258C13.1408 10.3635 13.3435 10.8599 13.3435 11.4718C13.3435 12.0259 13.1466 12.4876 12.7528 12.857C12.3474 13.238 11.8145 13.4285 11.1543 13.4285H11.1369C10.4999 13.4285 9.98444 13.238 9.59061 12.857C9.19678 12.4761 8.99988 11.997 8.99988 11.4198ZM9.22575 26.5713V15.0042H13.0829V26.5713H9.22575ZM15.22 26.5713H19.0771V20.1124C19.0771 19.7084 19.1234 19.3967 19.2161 19.1774C19.3783 18.7849 19.6244 18.453 19.9545 18.1817C20.2846 17.9104 20.6987 17.7748 21.1968 17.7748C22.4941 17.7748 23.1427 18.6464 23.1427 20.3895V26.5713H26.9999V19.9393C26.9999 18.2308 26.5945 16.935 25.7837 16.0518C24.9728 15.1687 23.9014 14.7272 22.5694 14.7272C21.0752 14.7272 19.9111 15.3679 19.0771 16.6492V16.6839H19.0597L19.0771 16.6492V15.0042H15.22C15.2431 15.3736 15.2547 16.5222 15.2547 18.4501C15.2547 20.378 15.2431 23.085 15.22 26.5713Z" fill="#8D8BA7"/>
</svg>
