<svg width="36" height="36" viewBox="0 0 36 36" fill="none" xmlns="http://www.w3.org/2000/svg">
<rect x="-0.00012207" width="36" height="36" rx="8" fill="#F2F1FA"/>
<path d="M21.0269 10.7012V10.698H21.8709L22.1793 10.7596C22.3849 10.7996 22.5716 10.852 22.7393 10.9168C22.907 10.9816 23.0693 11.0573 23.2262 11.1437C23.3831 11.2302 23.5254 11.3182 23.6531 11.4079C23.7797 11.4965 23.8933 11.5905 23.9939 11.69C24.0935 11.7904 24.2488 11.8164 24.4598 11.7678C24.6708 11.7191 24.898 11.6516 25.1414 11.5651C25.3849 11.4787 25.6257 11.3815 25.8637 11.2734C26.1018 11.1653 26.2468 11.0967 26.2987 11.0675C26.3496 11.0373 26.3766 11.0211 26.3799 11.0189L26.3831 11.0141L26.3993 11.006L26.4156 10.9979L26.4318 10.9897L26.448 10.9816L26.4513 10.9768L26.4561 10.9735L26.461 10.9703L26.4643 10.9654L26.4805 10.9606L26.4967 10.9573L26.4935 10.9816L26.4886 11.006L26.4805 11.0303L26.4724 11.0546L26.4643 11.0708L26.4561 11.087L26.448 11.1113C26.4426 11.1275 26.4372 11.1491 26.4318 11.1761C26.4264 11.2032 26.375 11.3112 26.2776 11.5003C26.1802 11.6894 26.0585 11.8812 25.9124 12.0757C25.7663 12.2702 25.6354 12.4172 25.5196 12.5166C25.4028 12.6171 25.3254 12.6873 25.2875 12.7273C25.2497 12.7683 25.2037 12.8062 25.1496 12.8407L25.0684 12.8942L25.0522 12.9023L25.0359 12.9104L25.0327 12.9153L25.0278 12.9186L25.023 12.9218L25.0197 12.9267L25.0035 12.9348L24.9873 12.9429L24.984 12.9477L24.9791 12.951L24.9743 12.9542L24.971 12.9591L24.9678 12.9639L24.9629 12.9672L24.958 12.9704L24.9548 12.9753H25.0359L25.4904 12.878C25.7934 12.8132 26.0828 12.7349 26.3588 12.643L26.797 12.4971L26.8457 12.4809L26.87 12.4728L26.8863 12.4647L26.9025 12.4566L26.9187 12.4485L26.935 12.4404L26.9674 12.4355L26.9999 12.4323V12.4647L26.9918 12.468L26.9836 12.4728L26.9804 12.4777L26.9755 12.4809L26.9707 12.4842L26.9674 12.489L26.9642 12.4939L26.9593 12.4971L26.9544 12.5004L26.9512 12.5052L26.948 12.5101L26.9431 12.5133L26.935 12.5295L26.9268 12.5458L26.922 12.549C26.9198 12.5522 26.8511 12.6441 26.7158 12.8245C26.5806 13.0061 26.5075 13.0979 26.4967 13.1001C26.4859 13.1033 26.4708 13.1195 26.4513 13.1487C26.4329 13.179 26.3182 13.2994 26.1072 13.5102C25.8962 13.7209 25.6895 13.9083 25.4872 14.0726C25.2838 14.2379 25.181 14.4411 25.1788 14.682C25.1755 14.9219 25.1631 15.1931 25.1414 15.4957C25.1198 15.7982 25.0792 16.1251 25.0197 16.4763C24.9602 16.8275 24.8682 17.2246 24.7438 17.6676C24.6194 18.1106 24.4679 18.5429 24.2893 18.9643C24.1108 19.3857 23.9241 19.7639 23.7294 20.0989C23.5346 20.4339 23.3561 20.7175 23.1937 20.9498C23.0314 21.1821 22.8664 21.4009 22.6987 21.6063C22.531 21.8116 22.3189 22.0428 22.0625 22.3C21.8049 22.5561 21.6643 22.6965 21.6405 22.7214C21.6156 22.7452 21.5096 22.8338 21.3223 22.9872C21.1362 23.1417 20.936 23.2962 20.7218 23.4508C20.5086 23.6042 20.3128 23.7323 20.1342 23.8349C19.9557 23.9376 19.7404 24.0548 19.4882 24.1866C19.2372 24.3195 18.9656 24.4427 18.6735 24.5562C18.3813 24.6696 18.0729 24.775 17.7483 24.8723C17.4237 24.9695 17.1099 25.0451 16.8069 25.0992C16.5039 25.1532 16.1604 25.1991 15.7763 25.2369L15.2001 25.2937V25.3018H14.1451V25.2937L14.0071 25.2856C13.9151 25.2802 13.8394 25.2748 13.7799 25.2694C13.7204 25.264 13.4958 25.2342 13.1063 25.1802C12.7167 25.1262 12.4111 25.0721 12.1892 25.0181C11.9674 24.9641 11.6374 24.8614 11.1992 24.7102C10.7609 24.5589 10.386 24.406 10.0744 24.2515C9.76381 24.098 9.56904 24.0008 9.49005 23.9597C9.41214 23.9197 9.32449 23.87 9.22711 23.8106L9.08103 23.7215L9.0778 23.7166L9.07292 23.7134L9.06805 23.7101L9.0648 23.7052L9.04857 23.6971L9.03234 23.689L9.02911 23.6842L9.02422 23.6809L9.01935 23.6777L9.01611 23.6728L9.01288 23.668L9.00799 23.6647H8.99988V23.6323L9.01611 23.6355L9.03234 23.6404L9.10538 23.6485C9.15407 23.6539 9.28663 23.662 9.50303 23.6728C9.71946 23.6836 9.94938 23.6836 10.1928 23.6728C10.4363 23.662 10.6852 23.6377 10.9395 23.5999C11.1938 23.5621 11.494 23.4972 11.8403 23.4054C12.1865 23.3135 12.5047 23.2044 12.7947 23.078C13.0836 22.9505 13.2892 22.8554 13.4114 22.7927C13.5326 22.7311 13.7176 22.6166 13.9665 22.4491L14.3398 22.1979L14.3431 22.193L14.3479 22.1898L14.3528 22.1865L14.3561 22.1817L14.3593 22.1768L14.3642 22.1736L14.3691 22.1703L14.3723 22.1654L14.3885 22.1606L14.4047 22.1573L14.408 22.1411L14.4129 22.1249L14.4177 22.1217L14.421 22.1168L14.2911 22.1087C14.2046 22.1033 14.1207 22.0979 14.0396 22.0925C13.9584 22.0871 13.8313 22.0628 13.6581 22.0196C13.485 21.9763 13.2984 21.9115 13.0982 21.8251C12.898 21.7386 12.7032 21.636 12.5139 21.5171C12.3245 21.3983 12.1876 21.2994 12.1032 21.2205C12.0199 21.1427 11.9117 21.0325 11.7786 20.8898C11.6466 20.7461 11.5319 20.5986 11.4345 20.4474C11.3371 20.2961 11.2441 20.1216 11.1553 19.9238L11.0206 19.6288L11.0125 19.6045L11.0044 19.5802L10.9995 19.564L10.9963 19.5478L11.0206 19.551L11.045 19.5559L11.2235 19.5802C11.3425 19.5964 11.5292 19.6018 11.7835 19.5964C12.0378 19.591 12.2136 19.5802 12.311 19.564C12.4084 19.5478 12.4679 19.537 12.4895 19.5316L12.522 19.5235L12.5625 19.5154L12.6031 19.5073L12.6064 19.5024L12.6112 19.4992L12.6161 19.4959L12.6194 19.4911L12.5869 19.483L12.5544 19.4749L12.522 19.4667L12.4895 19.4586L12.457 19.4505C12.4354 19.4451 12.3975 19.4343 12.3434 19.4181C12.2893 19.4019 12.1433 19.3425 11.9052 19.2398C11.6672 19.1372 11.4778 19.0372 11.3371 18.94C11.1961 18.8424 11.0616 18.7358 10.9346 18.6207C10.808 18.504 10.669 18.3538 10.5175 18.1701C10.366 17.9864 10.2307 17.773 10.1117 17.5298C9.99267 17.2867 9.9034 17.0544 9.84388 16.8329C9.7846 16.6127 9.74549 16.3875 9.72704 16.1602L9.6978 15.8199L9.71403 15.8231L9.73027 15.828L9.7465 15.8361L9.76273 15.8442L9.77896 15.8523L9.79519 15.8604L10.0468 15.9738C10.2145 16.0495 10.4228 16.1143 10.6717 16.1683C10.9205 16.2224 11.0693 16.2521 11.118 16.2575L11.191 16.2656H11.3371L11.3339 16.2607L11.329 16.2575L11.3241 16.2542L11.3209 16.2494L11.3177 16.2445L11.3128 16.2413L11.3079 16.238L11.3047 16.2332L11.2884 16.2251L11.2722 16.217L11.269 16.2121L11.2641 16.2089L11.2592 16.2056L11.256 16.2008L11.2397 16.1926L11.2235 16.1845L11.2203 16.1797C11.217 16.1775 11.1705 16.1429 11.0807 16.0759C10.9919 16.0079 10.8989 15.9198 10.8015 15.8118C10.7041 15.7037 10.6067 15.5902 10.5093 15.4714C10.4118 15.3522 10.3249 15.2248 10.2497 15.0905C10.1739 14.9554 10.0938 14.7836 10.0094 14.575C9.92612 14.3676 9.86282 14.1585 9.81954 13.9478C9.77626 13.7371 9.75192 13.5291 9.7465 13.3238C9.74109 13.1184 9.7465 12.9429 9.76273 12.797C9.77896 12.6511 9.81142 12.4863 9.86011 12.3026C9.9088 12.1189 9.97915 11.9244 10.0711 11.7191L10.2091 11.4112L10.2172 11.3869L10.2253 11.3625L10.2302 11.3593L10.2334 11.3544L10.2367 11.3496L10.2415 11.3463L10.2464 11.3496L10.2497 11.3544L10.2529 11.3593L10.2578 11.3625L10.2627 11.3658L10.2659 11.3706L10.2691 11.3755L10.274 11.3788L10.2821 11.395L10.2902 11.4112L10.2951 11.4144L10.2983 11.4193L10.5175 11.6624C10.6635 11.8245 10.8367 12.0055 11.0368 12.2054C11.237 12.4053 11.3479 12.509 11.3696 12.5166C11.3912 12.5252 11.4183 12.5501 11.4507 12.5911C11.4832 12.6311 11.5914 12.7268 11.7754 12.878C11.9593 13.0293 12.2001 13.2049 12.4976 13.4048C12.7952 13.6047 13.1252 13.8019 13.4877 13.9964C13.8502 14.1909 14.2397 14.3665 14.6563 14.5232C15.0729 14.6799 15.3651 14.7825 15.5328 14.8311C15.7005 14.8798 15.9873 14.9419 16.393 15.0175C16.7988 15.0932 17.1045 15.1418 17.3101 15.1634C17.5157 15.185 17.6563 15.1975 17.7321 15.2007L17.8457 15.2039L17.8425 15.1796L17.8376 15.1553L17.8051 14.9527C17.7835 14.8176 17.7726 14.6285 17.7726 14.3854C17.7726 14.1423 17.7916 13.9181 17.8295 13.7128C17.8673 13.5075 17.9241 13.2994 17.9999 13.0887C18.0756 12.878 18.1498 12.7089 18.2222 12.5814C18.2958 12.455 18.3921 12.3107 18.5111 12.1487C18.6302 11.9866 18.7844 11.8191 18.9737 11.6462C19.1631 11.4733 19.3795 11.3193 19.623 11.1843C19.8664 11.0492 20.091 10.9465 20.2965 10.8763C20.5021 10.8061 20.6753 10.7601 20.8159 10.7385C20.9566 10.7169 21.0269 10.7045 21.0269 10.7012Z" fill="#8D8BA7"/>
</svg>
